<?xml version="1.0" encoding="UTF-8"?>
<svg id="Calque_1" data-name="Calque 1" xmlns="http://www.w3.org/2000/svg" viewBox="0 0 800 329.86">
  <defs>
    <style>
      .cls-1 {
        fill: #e12734;
        stroke-width: 0px;
      }
    </style>
  </defs>
  <path class="cls-1" d="M264,90.68l-35.93,26.69c-7.6-10.55-17.56-20.3-34.44-27.72-1.63-.71-3.3-1.32-5-1.84-19.46-5.87-40.06-5.31-62.6,6.33-2.1,1.09-4.13,2.33-6.05,3.71-19.62,14.1-29.76,31.2-33.87,50.2-4.79,23.78.62,43.13,11.06,60.29,13.59,20.16,33.19,33.81,62.46,37.02,14.05,1,28.09-2.24,42.12-9.18,1.48-.73,2.93-1.55,4.33-2.43,9.27-5.85,17.39-12.71,23.66-21.18l34.33,25.94c-8.39,10.85-18.91,20.4-31.73,28.54-19.11,12.93-42.73,19.2-70.45,19.4-40.08-1.63-73.58-16.84-98.92-48.94-.99-1.25-1.91-2.55-2.78-3.88-14.02-21.68-23.08-46.53-20.9-78.58.33-4.78,1.02-9.54,2.03-14.22,6.85-31.8,23.11-59.37,55.86-79.53,27.92-17.05,59.87-22.01,95.75-15.22,1.22.23,2.45.52,3.65.86,29.32,8.25,51.6,23.02,67.42,43.74Z"/>
  <path class="cls-1" d="M438.91,151.37l-105-104.87v236.41s210.14.02,210.14.02V46.49l-105.14,104.88ZM378.61,238.03l-.16-94.01,60.41,60.29,60.26-60.01.02,93.91-120.54-.18Z"/>
  <path class="cls-1" d="M663.02,91.28v47.64h84.09v48.85h-84.09v50.36h98v48.7h-147V43.03h147v48.24h-98Z"/>
</svg>